<svg width="904.0" height="680" xmlns="http://www.w3.org/2000/svg">
<defs><marker id="arrow" markerWidth="10" markerHeight="10" refX="9" refY="3" orient="auto" >
<path d="M0,0 L0,6 L9,3 z" fill="gray"/></marker></defs>
<path stroke-width="3" stroke="gray" d="M 795 256 836 209" marker-end="url(#arrow)"/>
<path stroke-width="3" stroke="gray" d="M 475 307 49 349" marker-end="url(#arrow)"/>
<path stroke-width="3" stroke="gray" d="M 475 307 320 287" marker-end="url(#arrow)"/>
<path stroke-width="3" stroke="gray" d="M 475 307 442 500" marker-end="url(#arrow)"/>
<path stroke-width="3" stroke="gray" d="M 475 307 537 321" marker-end="url(#arrow)"/>
<path stroke-width="3" stroke="gray" d="M 475 307 578 225" marker-end="url(#arrow)"/>
<path stroke-width="3" stroke="gray" d="M 314 287 213 257" marker-end="url(#arrow)"/>
<path stroke-width="3" stroke="gray" d="M 314 287 49 348" marker-end="url(#arrow)"/>
<path stroke-width="3" stroke="gray" d="M 314 287 469 307" marker-end="url(#arrow)"/>
<path stroke-width="3" stroke="gray" d="M 314 287 438 500" marker-end="url(#arrow)"/>
<path stroke-width="3" stroke="gray" d="M 314 287 577 222" marker-end="url(#arrow)"/>
<path stroke-width="3" stroke="gray" d="M 680 640 469 602" marker-end="url(#arrow)"/>
<path stroke-width="3" stroke="gray" d="M 680 640 551 597" marker-end="url(#arrow)"/>
<path stroke-width="3" stroke="gray" d="M 680 640 634 482" marker-end="url(#arrow)"/>
<path stroke-width="3" stroke="gray" d="M 441 506 114 466" marker-end="url(#arrow)"/>
<path stroke-width="3" stroke="gray" d="M 441 506 49 351" marker-end="url(#arrow)"/>
<path stroke-width="3" stroke="gray" d="M 441 506 474 313" marker-end="url(#arrow)"/>
<path stroke-width="3" stroke="gray" d="M 441 506 317 293" marker-end="url(#arrow)"/>
<path stroke-width="3" stroke="gray" d="M 441 506 416 606" marker-end="url(#arrow)"/>
<path stroke-width="3" stroke="gray" d="M 441 506 462 595" marker-end="url(#arrow)"/>
<path stroke-width="3" stroke="gray" d="M 441 506 540 591" marker-end="url(#arrow)"/>
<path stroke-width="3" stroke="gray" d="M 441 506 540 328" marker-end="url(#arrow)"/>
<path stroke-width="3" stroke="gray" d="M 441 506 591 402" marker-end="url(#arrow)"/>
<path stroke-width="3" stroke="gray" d="M 441 506 627 477" marker-end="url(#arrow)"/>
<path stroke-width="3" stroke="gray" d="M 43 349 577 222" marker-end="url(#arrow)"/>
<path stroke-width="3" stroke="gray" d="M 43 349 435 504" marker-end="url(#arrow)"/>
<path stroke-width="3" stroke="gray" d="M 43 349 308 288" marker-end="url(#arrow)"/>
<path stroke-width="3" stroke="gray" d="M 43 349 469 307" marker-end="url(#arrow)"/>
<path stroke-width="3" stroke="gray" d="M 204 485 410 609" marker-end="url(#arrow)"/>
<path stroke-width="3" stroke="gray" d="M 125 508 198 486" marker-end="url(#arrow)"/>
<path stroke-width="3" stroke="gray" d="M 125 508 110 472" marker-end="url(#arrow)"/>
<path stroke-width="3" stroke="gray" d="M 108 466 198 484" marker-end="url(#arrow)"/>
<path stroke-width="3" stroke="gray" d="M 108 466 123 502" marker-end="url(#arrow)"/>
<path stroke-width="3" stroke="gray" d="M 108 466 205 261" marker-end="url(#arrow)"/>
<path stroke-width="3" stroke="gray" d="M 108 466 46 355" marker-end="url(#arrow)"/>
<path stroke-width="3" stroke="gray" d="M 108 466 435 506" marker-end="url(#arrow)"/>
<path stroke-width="3" stroke="gray" d="M 108 466 537 324" marker-end="url(#arrow)"/>
<path stroke-width="3" stroke="gray" d="M 207 255 110 460" marker-end="url(#arrow)"/>
<path stroke-width="3" stroke="gray" d="M 207 255 64 321" marker-end="url(#arrow)"/>
<path stroke-width="3" stroke="gray" d="M 415 612 209 488" marker-end="url(#arrow)"/>
<path stroke-width="3" stroke="gray" d="M 207 255 49 346" marker-end="url(#arrow)"/>
<path stroke-width="3" stroke="gray" d="M 207 255 577 221" marker-end="url(#arrow)"/>
<path stroke-width="3" stroke="gray" d="M 45 40 40 99" marker-end="url(#arrow)"/>
<path stroke-width="3" stroke="gray" d="M 45 40 43 343" marker-end="url(#arrow)"/>
<path stroke-width="3" stroke="gray" d="M 45 40 577 219" marker-end="url(#arrow)"/>
<path stroke-width="3" stroke="gray" d="M 40 105 45 46" marker-end="url(#arrow)"/>
<path stroke-width="3" stroke="gray" d="M 58 323 201 257" marker-end="url(#arrow)"/>
<path stroke-width="3" stroke="gray" d="M 58 323 46 343" marker-end="url(#arrow)"/>
<path stroke-width="3" stroke="gray" d="M 43 349 201 258" marker-end="url(#arrow)"/>
<path stroke-width="3" stroke="gray" d="M 43 349 45 46" marker-end="url(#arrow)"/>
<path stroke-width="3" stroke="gray" d="M 43 349 40 111" marker-end="url(#arrow)"/>
<path stroke-width="3" stroke="gray" d="M 43 349 55 329" marker-end="url(#arrow)"/>
<path stroke-width="3" stroke="gray" d="M 207 255 308 285" marker-end="url(#arrow)"/>
<path stroke-width="3" stroke="gray" d="M 204 485 114 467" marker-end="url(#arrow)"/>
<path stroke-width="3" stroke="gray" d="M 415 612 440 512" marker-end="url(#arrow)"/>
<path stroke-width="3" stroke="gray" d="M 463 601 674 639" marker-end="url(#arrow)"/>
<path stroke-width="3" stroke="gray" d="M 633 476 546 328" marker-end="url(#arrow)"/>
<path stroke-width="3" stroke="gray" d="M 633 476 599 405" marker-end="url(#arrow)"/>
<path stroke-width="3" stroke="gray" d="M 633 476 743 319" marker-end="url(#arrow)"/>
<path stroke-width="3" stroke="gray" d="M 633 476 718 416" marker-end="url(#arrow)"/>
<path stroke-width="3" stroke="gray" d="M 723 412 746 320" marker-end="url(#arrow)"/>
<path stroke-width="3" stroke="gray" d="M 723 412 638 472" marker-end="url(#arrow)"/>
<path stroke-width="3" stroke="gray" d="M 675 232 548 319" marker-end="url(#arrow)"/>
<path stroke-width="3" stroke="gray" d="M 675 232 598 393" marker-end="url(#arrow)"/>
<path stroke-width="3" stroke="gray" d="M 675 232 771 277" marker-end="url(#arrow)"/>
<path stroke-width="3" stroke="gray" d="M 675 232 589 221" marker-end="url(#arrow)"/>
<path stroke-width="3" stroke="gray" d="M 583 221 213 255" marker-end="url(#arrow)"/>
<path stroke-width="3" stroke="gray" d="M 415 612 457 602" marker-end="url(#arrow)"/>
<path stroke-width="3" stroke="gray" d="M 583 221 51 42" marker-end="url(#arrow)"/>
<path stroke-width="3" stroke="gray" d="M 583 221 480 303" marker-end="url(#arrow)"/>
<path stroke-width="3" stroke="gray" d="M 583 221 320 286" marker-end="url(#arrow)"/>
<path stroke-width="3" stroke="gray" d="M 583 221 545 316" marker-end="url(#arrow)"/>
<path stroke-width="3" stroke="gray" d="M 583 221 771 278" marker-end="url(#arrow)"/>
<path stroke-width="3" stroke="gray" d="M 583 221 669 232" marker-end="url(#arrow)"/>
<path stroke-width="3" stroke="gray" d="M 583 221 789 255" marker-end="url(#arrow)"/>
<path stroke-width="3" stroke="gray" d="M 840 204 781 275" marker-end="url(#arrow)"/>
<path stroke-width="3" stroke="gray" d="M 840 204 799 251" marker-end="url(#arrow)"/>
<path stroke-width="3" stroke="gray" d="M 795 256 751 309" marker-end="url(#arrow)"/>
<path stroke-width="3" stroke="gray" d="M 795 256 781 275" marker-end="url(#arrow)"/>
<path stroke-width="3" stroke="gray" d="M 795 256 589 222" marker-end="url(#arrow)"/>
<path stroke-width="3" stroke="gray" d="M 583 221 49 348" marker-end="url(#arrow)"/>
<path stroke-width="3" stroke="gray" d="M 633 476 679 634" marker-end="url(#arrow)"/>
<path stroke-width="3" stroke="gray" d="M 633 476 447 505" marker-end="url(#arrow)"/>
<path stroke-width="3" stroke="gray" d="M 777 280 836 209" marker-end="url(#arrow)"/>
<path stroke-width="3" stroke="gray" d="M 463 601 442 512" marker-end="url(#arrow)"/>
<path stroke-width="3" stroke="gray" d="M 463 601 421 611" marker-end="url(#arrow)"/>
<path stroke-width="3" stroke="gray" d="M 463 601 539 595" marker-end="url(#arrow)"/>
<path stroke-width="3" stroke="gray" d="M 545 595 674 638" marker-end="url(#arrow)"/>
<path stroke-width="3" stroke="gray" d="M 545 595 446 510" marker-end="url(#arrow)"/>
<path stroke-width="3" stroke="gray" d="M 545 595 469 601" marker-end="url(#arrow)"/>
<path stroke-width="3" stroke="gray" d="M 543 322 114 464" marker-end="url(#arrow)"/>
<path stroke-width="3" stroke="gray" d="M 543 322 481 308" marker-end="url(#arrow)"/>
<path stroke-width="3" stroke="gray" d="M 543 322 444 500" marker-end="url(#arrow)"/>
<path stroke-width="3" stroke="gray" d="M 543 322 593 394" marker-end="url(#arrow)"/>
<path stroke-width="3" stroke="gray" d="M 543 322 630 470" marker-end="url(#arrow)"/>
<path stroke-width="3" stroke="gray" d="M 543 322 670 235" marker-end="url(#arrow)"/>
<path stroke-width="3" stroke="gray" d="M 777 280 791 261" marker-end="url(#arrow)"/>
<path stroke-width="3" stroke="gray" d="M 543 322 581 227" marker-end="url(#arrow)"/>
<path stroke-width="3" stroke="gray" d="M 596 399 546 327" marker-end="url(#arrow)"/>
<path stroke-width="3" stroke="gray" d="M 596 399 630 470" marker-end="url(#arrow)"/>
<path stroke-width="3" stroke="gray" d="M 596 399 673 238" marker-end="url(#arrow)"/>
<path stroke-width="3" stroke="gray" d="M 747 314 773 285" marker-end="url(#arrow)"/>
<path stroke-width="3" stroke="gray" d="M 747 314 637 471" marker-end="url(#arrow)"/>
<path stroke-width="3" stroke="gray" d="M 747 314 724 406" marker-end="url(#arrow)"/>
<path stroke-width="3" stroke="gray" d="M 747 314 791 261" marker-end="url(#arrow)"/>
<path stroke-width="3" stroke="gray" d="M 777 280 751 309" marker-end="url(#arrow)"/>
<path stroke-width="3" stroke="gray" d="M 777 280 681 235" marker-end="url(#arrow)"/>
<path stroke-width="3" stroke="gray" d="M 777 280 589 223" marker-end="url(#arrow)"/>
<path stroke-width="3" stroke="gray" d="M 596 399 446 503" marker-end="url(#arrow)"/>
<path stroke-width="3" stroke="gray" d="M 204 485 131 507" marker-end="url(#arrow)"/>
<path stroke-width="3" stroke="blue" d="M 40 105 43 343" marker-end="url(#arrow)"/>
<path stroke-width="3" stroke="blue" d="M 43 349 105 460" marker-end="url(#arrow)"/>
<circle cx="795" cy="256" r="7.0" style="fill:gray;stroke:black;stroke-width:1.0"/>
<circle cx="840" cy="204" r="7.0" style="fill:gray;stroke:black;stroke-width:1.0"/>
<circle cx="583" cy="221" r="7.0" style="fill:gray;stroke:black;stroke-width:1.0"/>
<circle cx="675" cy="232" r="7.0" style="fill:gray;stroke:black;stroke-width:1.0"/>
<circle cx="723" cy="412" r="7.0" style="fill:gray;stroke:black;stroke-width:1.0"/>
<circle cx="633" cy="476" r="7.0" style="fill:gray;stroke:black;stroke-width:1.0"/>
<circle cx="777" cy="280" r="7.0" style="fill:gray;stroke:black;stroke-width:1.0"/>
<circle cx="747" cy="314" r="7.0" style="fill:gray;stroke:black;stroke-width:1.0"/>
<circle cx="596" cy="399" r="7.0" style="fill:gray;stroke:black;stroke-width:1.0"/>
<circle cx="543" cy="322" r="7.0" style="fill:gray;stroke:black;stroke-width:1.0"/>
<circle cx="545" cy="595" r="7.0" style="fill:gray;stroke:black;stroke-width:1.0"/>
<circle cx="463" cy="601" r="7.0" style="fill:gray;stroke:black;stroke-width:1.0"/>
<circle cx="415" cy="612" r="7.0" style="fill:gray;stroke:black;stroke-width:1.0"/>
<circle cx="441" cy="506" r="7.0" style="fill:gray;stroke:black;stroke-width:1.0"/>
<circle cx="680" cy="640" r="7.0" style="fill:gray;stroke:black;stroke-width:1.0"/>
<circle cx="314" cy="287" r="7.0" style="fill:gray;stroke:black;stroke-width:1.0"/>
<circle cx="475" cy="307" r="7.0" style="fill:gray;stroke:black;stroke-width:1.0"/>
<circle cx="43" cy="349" r="7.0" style="fill:gray;stroke:black;stroke-width:1.0"/>
<circle cx="58" cy="323" r="7.0" style="fill:gray;stroke:black;stroke-width:1.0"/>
<circle cx="40" cy="105" r="7.0" style="fill:gray;stroke:black;stroke-width:1.0"/>
<circle cx="45" cy="40" r="7.0" style="fill:gray;stroke:black;stroke-width:1.0"/>
<circle cx="207" cy="255" r="7.0" style="fill:gray;stroke:black;stroke-width:1.0"/>
<circle cx="108" cy="466" r="7.0" style="fill:gray;stroke:black;stroke-width:1.0"/>
<circle cx="125" cy="508" r="7.0" style="fill:gray;stroke:black;stroke-width:1.0"/>
<circle cx="204" cy="485" r="7.0" style="fill:gray;stroke:black;stroke-width:1.0"/>
<text x="812" y="263" font-size="12">0</text><text x="857" y="211" font-size="12">1</text><text x="600" y="228" font-size="12">2</text><text x="692" y="239" font-size="12">3</text><text x="740" y="419" font-size="12">4</text><text x="650" y="483" font-size="12">5</text><text x="794" y="287" font-size="12">6</text><text x="764" y="321" font-size="12">7</text><text x="613" y="406" font-size="12">8</text><text x="560" y="329" font-size="12">9</text><text x="562" y="602" font-size="12">10</text><text x="480" y="608" font-size="12">11</text><text x="432" y="619" font-size="12">12</text><text x="458" y="513" font-size="12">13</text><text x="697" y="647" font-size="12">14</text><text x="331" y="294" font-size="12">15</text><text x="492" y="314" font-size="12">16</text><text x="60" y="356" font-size="12">17</text><text x="75" y="330" font-size="12">18</text><text x="57" y="112" font-size="12">19</text><text x="62" y="47" font-size="12">20</text><text x="224" y="262" font-size="12">21</text><text x="125" y="473" font-size="12">22</text><text x="142" y="515" font-size="12">23</text><text x="221" y="492" font-size="12">24</text></svg>
